<?xml version="1.0" encoding="utf-8"?>
<!-- Generator: Adobe Illustrator 24.2.0, SVG Export Plug-In . SVG Version: 6.00 Build 0)  -->
<svg version="1.1" id="Layer_1" xmlns="http://www.w3.org/2000/svg" xmlns:xlink="http://www.w3.org/1999/xlink" x="0px" y="0px"
	 viewBox="0 0 784.8 1188" style="enable-background:new 0 0 784.8 1188;" xml:space="preserve">
<style type="text/css">
	.st0{fill:#FFFFFF;}
	.st1{fill:#0000FD;}
	.st2{fill:#FD0101;}
</style>
<g>
	<g>
		<path class="st0" d="M412.9,112.8c0-6.3-0.2-12.6,0.1-18.9c1-0.1,2-0.2,3-0.2c4.7,6.6,10.1,12.6,14.8,19.2
			c2.8,0.1,5.7,0.1,8.5-0.1c-6-6.8-11.4-14.2-17.3-21.1c-1.1-1.2-2.3-3.2-1-4.6c4.4-5,9.3-9.4,13.6-14.4c0.9-1,2.4-2.9,3.6-1.3
			c3.9,5.9,7.2,12.2,11,18.1c1.2,2.1,3,4.2,2.7,6.8c0,5.6,0,11.1,0,16.7c2.2,0,4.4-0.1,6.6-0.2c0.2-6.8-0.5-13.7,0.4-20.4
			c4.3-7.9,9.6-15.2,14-23c-1.9-0.5-3.9-0.5-5.8-0.6c-4.3,6-7.8,12.6-11.6,18.9c-4.8-5.6-7.6-12.8-11.9-18.8
			c-4.4,0.1-8.8,0-13.2,0.1c-5.6,6.5-11.2,13.1-17.5,18.9c-0.2-6.2-0.1-12.5-0.1-18.7c-2-0.1-4-0.2-6.1-0.3
			c-0.2,14.7-0.1,29.4-0.1,44.1C408.8,112.9,410.8,112.8,412.9,112.8z"/>
		<path class="st0" d="M447.6,62.8c0.5-1.5,0.4-3.8,1.4-4.6c3.3-0.1,6.8,5.2,11.3,4.7c4.4,0.4,6.9-4.5,7-8.3c-1.2,0-2.4-0.1-3.6-0.1
			c-0.9,1.7-1.9,4.4-2.8,4.9c-3.2-0.7-6.3-5.4-10.5-4.9c-4.3-0.2-7.1,4.4-6.8,8.4C445,62.9,446.3,62.9,447.6,62.8z"/>
		<path class="st0" d="M408.1,222c-0.1-10.8,0-21.5-0.1-32.3c10-0.2,20.1,0,30.1-0.1c0.1,11-0.1,22,0.1,32.9c3.2,0,6.4,0,9.5,0
			c0.1-22.3-0.1-44.5,0.1-66.8c-3-0.8-6.1-1-9.1-0.3c-0.1,8.8,0.4,17.6-0.3,26.4c-10.1,0-20.2,0-30.4,0c-0.1-8.8-0.1-17.5,0-26.3
			c-3,0-6.1,0-9.1,0c0,22.1,0.1,44.2,0,66.3C402,222,405,222,408.1,222z"/>
		<path class="st0" d="M284.4,54.8c0.2,1.6-1.2,3.9-2,6c0.7,0,1.9,0,1.9,0s2.9-2.9,3.7-4.4c0.2-1.8-0.5-3.7-2-4.5
			c-1.7-0.6-3.3-0.7-4.9,0.1c-0.1,0.9-0.3,1.8-0.4,2.7C281.7,54.1,283.5,54.3,284.4,54.8z"/>
		<path class="st0" d="M492,131.1c-3.3-0.2-6.5-0.1-9.8-0.1c-1.7,3.2-3.1,6.4-4.4,9.8c1.9,0,3.8,0.1,5.6,0.1
			C486.4,137.6,489.5,134.6,492,131.1z"/>
		<path class="st0" d="M358.7,113.3c7.2,1.4,14.8,0.6,21.4-2.8c0-6.6,0-13.1,0-19.7c-5.3,0.1-10.6-0.2-15.9,0.1
			c-0.2,1.6-0.3,3.1-0.3,4.7c3.4,0,6.8,0.1,10.2,0c0.1,4.1,0.1,8.1,0,12.2c-5.9,1.5-13.2,2.3-18.1-2.3c-5.5-5.4-5.8-13.8-4.7-20.9
			c1.4-6.4,7.1-12.6,14.1-12c5.5-0.1,10.2,3.1,14.6,5.9c0.1-2.3,0.1-4.5,0.2-6.8c-9.4-6.2-23.8-6-31,3.4c-5.1,6.2-4.9,14.6-4.2,22.1
			C346,104.7,351.3,111.5,358.7,113.3z"/>
		<path class="st0" d="M306.8,112.8c1.8,0,3.6,0,5.4,0.1c0.1-12.2,0-24.5,0.1-36.7c3.3,4,5.2,9,7.6,13.5c4,7.7,8,15.4,12,23.1
			c2.3,0,4.6,0,7,0c0-14.6-0.1-29.2,0-43.8c-2-0.1-3.9-0.2-5.9-0.3c-0.2,11.2,0.2,22.5-0.2,33.7c-5.8-10.3-10.7-21-16.3-31.4
			c-1.7-3.8-6.5-1.8-9.7-2.3C306.7,83.6,306.8,98.2,306.8,112.8z"/>
		<path class="st0" d="M272.9,154.4c-13.7,2-23,15.6-23.3,28.9c0,6.7-0.7,13.6,1.5,20c1.9,6.3,5.8,12.1,11.3,15.8
			c5.2,3.8,11.7,4.3,17.9,4c10.1,0.7,19.9-5.9,23.9-15c4.2-8.5,4.1-18.3,3.3-27.6c-1.2-6.6-3.6-13.2-8.2-18.2
			C292.7,155.3,282.3,152.6,272.9,154.4z M298.8,193.3c-0.9,7.1-2.8,15-8.9,19.4c-4.7,3.8-11.1,4-16.7,2.7
			c-8.3-2.6-12.9-11.2-14-19.3c-0.8-9-0.7-18.8,4.4-26.6c2.7-3.7,6.6-7,11.3-7.6c6.1-1,12.9,0.1,17.1,4.9
			C298.3,173.9,299.3,184.1,298.8,193.3z"/>
		<path class="st0" d="M475.3,156c-2.7,7-4.7,14.3-7.3,21.3c-4.7,15-10.3,29.6-14.7,44.6c3.1,0.1,6.2,0.1,9.2,0
			c1.6-6.4,4.1-12.6,5.7-19c8.4-0.1,16.8-0.2,25.2,0c1.4,6.5,4,12.6,5.7,19c3.1,0.1,6.2,0.1,9.3,0c-0.5-2-0.9-4-1.5-5.9
			c-6.9-20.1-13.6-40.2-20.2-60.3C482.9,155.7,479,155.1,475.3,156z M470.8,195.6c3.4-10.1,6.7-20.2,9.8-30.4
			c4.1,9.9,6.5,20.4,10.4,30.4C484.3,195.7,477.5,195.7,470.8,195.6z"/>
		<path class="st0" d="M362.1,162.7c0,19.7,0,39.5,0,59.2c3,0.1,6,0.1,9,0.1c0-19.7,0.1-39.5,0-59.2c7.6-0.2,15.2,0,22.7-0.1
			c0-2.5,0-5.1,0-7.7c-17.7,0-35.4,0.1-53.1-0.1c-0.6,2.5-0.7,5.1-0.6,7.7C347.4,162.7,354.7,162.7,362.1,162.7z"/>
		<path class="st0" d="M466.4,139.8c2,14.7,27.6,14.5,29.8,0c-2.3-0.1-4.6-0.2-7-0.2c-1.5,3.1-4,6.4-7.9,6.2
			c-4.1,0.4-6.7-3.2-8.6-6.3C470.7,139.7,468.6,139.7,466.4,139.8z"/>
		<path class="st0" d="M613.6,112.8c1-4,2.1-8.1,3.9-11.8c5.4-0.5,10.9,0,16.4-0.3c1.6,4,2.9,8.1,4.3,12.2c2.1,0,4.1,0,6.2-0.1
			c-4.5-13.8-9.3-27.5-14-41.2c-0.8-3.9-5.3-2.4-8.2-2.7c-5.4,14.5-9.8,29.4-15.4,43.9C609.1,112.9,611.3,112.9,613.6,112.8z
			 M625.5,75.4c2.6,6.7,4.6,13.6,6.8,20.4c-4.5,0-9-0.1-13.6,0C621.2,89.1,623.3,82.2,625.5,75.4z"/>
		<path class="st0" d="M622.9,118.9c0,2-0.1,4-0.1,6c2,0,6,0.1,6,0.1l-0.1-6.2C628.6,118.8,624.8,118.9,622.9,118.9z"/>
		<path class="st0" d="M620.7,62.7c1.8-1.9,5-6,5-6l6.3,6.5l4.1-0.2l-7-11.2c0,0-3.9,0.1-5.9,0c-2.8,3.5-5,7.4-7.5,11.1
			C617.3,62.9,619,63,620.7,62.7z"/>
		<path class="st0" d="M659,73.8c0.1,13,0.1,26,0,39c2,0,4,0.1,6,0.1c0.1-13,0-26.1,0-39.1c5,0,10,0,15,0c0-1.7,0-3.3-0.1-4.9
			c-12,0.2-24-0.1-36,0.1c0.3,1.6,0.6,3.3,0.9,4.9C649.6,73.7,654.3,73.8,659,73.8z"/>
		<path class="st0" d="M507,73.8c0,13,0.1,26-0.1,39c2,0,4,0.1,6,0.1c0-13,0-26.1,0-39.1c5,0,10,0,15,0c0-1.7,0-3.3,0-5
			c-11.5,0.2-23.1-0.1-34.6,0.1c-2.5,0.9-0.8,3.2-0.5,4.9C497.6,73.7,502.3,73.8,507,73.8z"/>
		<path class="st0" d="M572.9,191.4c0.5,8.9,3,18.4,9.9,24.5c5.9,5.9,14.5,7.8,22.6,7.2c7.6,0.6,14.8-2.3,21.5-5.4
			c0-9.7,0-19.4,0-29c-3.8-0.9-7.7-0.6-11.5-0.7c-4.5,0.1-9-0.4-13.4,0.8c0,2.3,0.1,4.6,0.1,6.9c5.3,0.1,10.5,0,15.8,0.1
			c-0.1,5.9,0.2,11.8-0.1,17.6c-4.1,3-9.6,2.5-14.4,2.6c-6.7,0.3-13-3.7-16.5-9.3c-4.4-6.6-4.6-14.8-4.2-22.4
			c0.2-9.3,5.8-18.8,14.8-21.9c10.1-2.6,20.8,1.1,28.4,7.9c1.4-3.2,0.8-6.8,1-10.2c-12.8-7.7-30.6-8.8-42.8,0.8
			C575.4,168.2,572.4,180.4,572.9,191.4z"/>
		<path class="st0" d="M531.9,112.9c2,0,4.1,0,6.2,0c0-7.3,0-14.7,0-22c6.7,0,13.3,0.1,20,0c0,7.3,0.1,14.6,0,21.9c2,0,4,0.1,6,0.1
			c0.1-14.8,0.2-29.5-0.1-44.2c-2,0.2-4.1,0.4-6.1,0.9c0.3,5.4,0.1,10.9,0.1,16.3c-6.5,0-12.9,0-19.4,0c0-5.4-0.1-10.9,0.1-16.3
			c-2.2-0.6-4.5-0.8-6.7-0.9C531.7,83.5,531.9,98.2,531.9,112.9z"/>
		<path class="st0" d="M515.8,155.6c0.1,22.3,0,44.7,0.1,67c2.9,0,5.9,0,8.8-0.1c0.2-18.3-0.2-36.6,0.2-54.9
			c1.1,1.1,2.1,2.3,2.8,3.8c8.3,17.2,17.5,33.9,25.8,51.1c3.4,0.1,6.8,0.1,10.3,0c0.1-22.5,0.1-45,0-67.5c-2.9,0-5.8-0.1-8.7-0.1
			c-0.3,16.9,0.3,33.9-0.3,50.8c-1.7-1.8-2.8-4-3.9-6.2c-7.2-14.7-14.7-29.2-21.8-43.9C524.6,155.6,520.2,155.6,515.8,155.6z"/>
		<path class="st0" d="M585.3,113.8c4.3,0,9,0.7,12.8-1.8c4.4-2.6,6.9-7.7,6.8-12.7c0.1-10.1,0.1-20.3,0-30.4c-2,0-4.1,0-6.1,0
			c-0.1,9.8,0,19.6,0,29.4c0,3.2-0.7,6.8-3.4,8.8c-2.7,2.2-6.5,2-9.8,1.6c-4.3-0.8-6.8-5.3-6.7-9.5c-0.1-10.1,0.1-20.3-0.1-30.4
			c-2,0-4,0-6,0c0,10.5-0.1,21,0,31.4C572.9,107.1,578.4,113.6,585.3,113.8z"/>
		<path class="st0" d="M536,760.3c-8-1.9-16.4-1.2-24.6-1.4c-19-0.4-38,0.2-57-0.3c-4.7-0.6-9.4-1.1-14-0.2c-6.3,1-12.6-0.8-19-0.5
			c-6.8,0.1-13.7-0.2-20.6-0.1c-0.2,4.4-0.1,8.7,0.1,13.1c21.8,0.1,43.7-0.1,65.5,0.2c11.3,1.5,22.6,0.6,34,0.9c7,0.2,14,0,20.9,0.1
			c5,0.6,10,1.1,15,0.7c2.6-0.8,5.1-3.5,4.7-6.4C541.2,763.4,538.5,761.4,536,760.3z"/>
		<path class="st0" d="M103.6,113.3c6.9,1.4,14.6,0.8,20.5-3.4c-0.1-2.2-0.2-4.5-0.3-6.7c-3.4,2.1-6.6,4.9-10.7,5.6
			c-3.3,0.3-6.9,0.4-9.7-1.7c-4.3-3.1-7-8.5-6.8-13.8c0-4.4-0.4-9.1,1.9-13c2.1-4.5,6.8-7.9,11.8-7.6c5.3-0.1,9.6,3.3,13.5,6.5
			c-0.1-2.6,0.6-5.5-0.4-7.9c-4.3-2.4-9.2-3.9-14.1-3.5c-6.1-0.3-11.9,3.3-15.3,8.2c-5,8.1-5.4,18.6-1.6,27.2
			C94.4,108,98.7,111.7,103.6,113.3z"/>
		<path class="st0" d="M134.3,100.8c5.7-0.1,11.4-0.1,17.1,0c1,4.2,2.4,8.2,4,12.1c2,0,4-0.1,6-0.1c-1-4.6-2.8-8.8-4.3-13.2
			c-3.5-10.3-6.9-20.5-10.5-30.7c-2.4,0-4.9,0-7.3,0.1c-5,14.6-9.9,29.2-14.8,43.8c1.9,0.1,3.7,0.2,5.6,0.3
			C132.1,109.2,133.2,105,134.3,100.8z M139.7,85c0.9-2.9,1.6-6,3.7-8.2c1.8,6.4,4.4,12.5,5.9,19c-4.3,0.1-8.6,0.1-12.9,0
			C137.2,92.1,138.6,88.6,139.7,85z"/>
		<path class="st0" d="M281.7,65.4c5.3,0.9,10.5-1.8,12.8-6.4c-1.5-0.3-3.4-1.9-4.8-0.6c-2.1,1.5-4,4.2-6.9,3.4
			c-2-1-3.6-2.7-5.4-3.9c-1.4,0.2-2.7,0.6-4,1.2C275.6,61.8,277.9,64.7,281.7,65.4z"/>
		<path class="st0" d="M340.6,392.6c16.6,4.6,33.4,8.3,50,13.1c4,0.6,7.6-1.7,11.4-2.4c122.4-31.8,244.8-63.6,367.2-95.7
			c0-7.2,0-14.4,0-21.7c-9.9-0.5-19.8-0.1-29.6-0.2c-113,0.1-226,0.2-339,0.3c-13,0.3-26-0.6-39,0.6c-115.8,0.1-231.7,0.2-347.5,0.3
			c-0.5,7.3,0,14.6-0.3,21.9C122.6,336.8,231.6,364.8,340.6,392.6z"/>
		<path class="st0" d="M178.4,113.8c4.4,0.1,9.1,0.8,13.1-1.4c7.5-3.3,11.2-12.2,10.7-20.1c0.4-6.3-0.4-13.1-4.7-18.1
			c-5.2-6.6-14.9-8.2-22.4-5.1c-5.9,2.4-9.9,8.2-11.2,14.3c-1.7,6.8-1.1,14.2,1.9,20.6C168.1,108.9,172.9,112.9,178.4,113.8z
			 M169.8,86.3c0.2-5.9,4.1-11.8,10-13.4c4.4-0.9,9.3,0.2,12.1,3.8c4.9,5.2,4.2,12.9,3.9,19.5c-0.7,4.9-3.5,10-8.2,12.1
			c-5.4,2-12.3,0.3-15.2-4.9C169,98.4,169.7,92.1,169.8,86.3z"/>
		<path class="st0" d="M764,978.3c-0.2-113.3-0.1-226.7-0.3-340c-1.2-8.3-0.4-16.7,0.1-25c-1-9-0.6-18-0.7-27
			c0-67.6-0.1-135.2-0.1-202.8c-3,0.3-6,1-8.9,1.8c-119.3,31.1-238.5,62.2-357.8,93.3c-2.8,0.7-5.7,0.8-8.5,0.2
			c-31.8-8.4-63.8-16.4-95.7-24.5c-86.3-22.1-172.4-44.3-258.7-66.4c-4.2-1.2-8.4-2.3-12.7-2.4c0,197,0.3,394,0.4,591
			c-0.1,3.7,1,7.3,0.5,11c-1.5,11.7,0.5,23.3,0.2,35c0,15.2,0,30.4,0.1,45.6c37.4,9.9,75,19.3,112.5,28.9
			c85.4,22,170.9,43.8,256.4,65.8c4.6,0.9,9-1.5,13.4-2.3c120-31.1,239.9-62.5,359.9-93.8C764.2,1037.1,763.9,1007.7,764,978.3z
			 M383,650.1c-13-2.6-26.4-4.5-39.6-2.3c-19.5,2.7-38.3,11.3-52.9,24.5c-18.8,17-31.2,41.4-32.7,66.9c0,8-0.6,16.1,1,24
			c3.4,19.7,13,38.3,27,52.6c21.1,22.2,53.2,33.4,83.6,29.1c4.9,0.1,9.4-2.4,14.4-2.5c0,6.5-0.1,13,0.1,19.5
			c-6.3,2-12.8,2.9-19.4,2.9c-4,0.5-8,1-12,0.2c-34.1-0.6-67.2-17.8-88.3-44.4c-16.2-19.8-25.1-45-26.2-70.4
			c-1-29.1,9.3-58.3,28-80.5c4.1-4.2,7.5-9.1,12.4-12.6c21.6-19,50.3-30.1,79.1-29.5c8.6,0,17.3,0.6,25.6,3.1
			C382.8,637.2,383.1,643.7,383,650.1z M370,974.1c-4-14-6.6-28.4-10.8-42.3c-6.8,0.3-13.4-1-20.2-0.9c-7.3-0.9-14.7-1.6-21.9-3.6
			c-3.7-0.8-7.5-2.3-11.2-1.4c-5.8,9.6-11.5,19.3-17.4,28.9c-1.8,2.6-2.9,5.8-5.3,7.9c-8.8-3.7-17.9-6.5-26.3-11.1
			c-4-2-8-4.2-12.1-6c3.7-13,8.7-25.6,13-38.5c0.4-1.2,0.5-2.4,0.3-3.7c-4.5-3.8-9.7-6.7-14.3-10.3c-5.1-4.2-10.2-8.4-15.1-12.9
			c-3.8-3.5-6.9-7.5-10.9-10.8c-13,6.8-26.5,12.7-39.5,19.6c-5-7.6-10.7-14.6-15.3-22.4c-2.7-4.5-5.2-9.1-8.3-13.4
			c11.4-9.5,23.3-18.1,34.6-27.7c-3.3-8.3-7.4-16.3-9.5-25.1c-3.1-8.2-4.2-16.9-6.1-25.4c-14-2.3-28.1-3.1-42.1-5.2
			c-1.1,0-2.3-0.8-2.4-2c-0.7-13.6-0.4-27.2-0.2-40.8c14.8-1.6,29.6-3.3,44.5-4.4c0.9-12.5,4.6-24.6,8.3-36.5
			c1.4-5.1,4.9-9.9,5.1-15.2c-11-9.2-21.9-18.6-33.4-27.2c1.5-5.4,5.2-9.8,7.7-14.7c3.9-6.9,8.9-13.1,13.3-19.7c0.8-1.7,2.8-2,4.2-1
			c10.8,5.6,21.7,10.9,32.3,16.7c1.4,0.7,3.1,1.7,4.8,1c5.2-4.2,8.8-9.9,13.9-14.2c3-2.7,6.1-5.3,9.1-8c5-4.5,10.9-7.8,16.1-12
			c-1.3-6.8-4.4-13.3-6.3-20c-1.9-7.6-5.1-14.9-7-22.5c9.3-4.3,18-9.8,27.6-13.3c3.7-1.2,7.3-3.8,11.2-4
			c7.4,12.2,14.4,24.7,21.6,37.1c9.1-1.4,17.8-4.8,27.1-5.5c8.7-2,17.5-1.7,26.4-2.1c0.5-4.9,2.2-9.5,3.4-14.3
			c2.5-9.5,5.1-18.9,7.3-28.5c5.6,0.1,11.3-0.1,16.8,1.3c-0.1,29,0,58,0,87c-9.6,0.1-19-3-28.6-1.8c-4.2,0.7-8.4,0.3-12.6,0.7
			c-8.5,1.3-17,2.4-25.2,5.2c-8.8,2.1-16.9,6.3-25.1,10.1c-8.4,4.8-16.9,9.6-24.2,16c-8.1,6.2-14.7,14-21.4,21.6
			c-5.1,7.1-10.6,14-14.3,22c-17.6,33-20.6,72.9-9.7,108.5c2.7,6.4,4.4,13.1,7.9,19.1c7.3,15.2,17.5,28.9,29.6,40.7
			c7.4,5.9,14.3,12.6,22.7,17.2c7.9,5.5,16.9,9,25.7,12.8c5.1,1.7,10.3,3,15.4,4.6c14.1,3.3,28.7,4.6,43.2,3.8
			c5.6-0.7,11.2-1.5,16.8-2.1c1,8.2,0.2,16.5,0.5,24.7c0.1,20.8-0.1,41.6,0.2,62.4C379.4,974.2,374.6,973.8,370,974.1z M626.4,756.9
			c-0.9,10.9,0,22-0.4,33c-10.6,0-21.1-0.1-31.7,0c-18.8,0.6-36.6,14.1-41.4,32.5c-2.7,9.1-1.8,18.6-2,27.9
			c-0.1,5.7-0.1,11.4-0.2,17c-1.7,18.6,0.1,37.4-1.7,55.9c-0.4,16.4,0.3,32.7-1,49c-0.1,13.3-0.3,26.7-0.3,40
			c-1.7,17.6,0,35.4-1.6,53c-0.2,9.1-0.1,18.3-0.3,27.4c-19.3,7.6-38.7,15.1-58,22.8c-4.2,1.6-8.3,3.8-12.9,3.6
			c-1.4-12.6-0.7-25.2-1.1-37.8c-0.3-9,0.3-18.1-0.8-27c-0.3-12-0.2-24-0.4-36c-1.6-14.9,0-30-1.6-45c-0.3-12.7-0.3-25.4-0.5-38
			c-1.6-13,0.1-26.3-1.5-39.3c-0.3-10.9-0.1-21.8-0.4-32.8c-1.7-12.2,0.4-24.7-1.8-36.8c-2.5-13.5-11.5-25.5-23.9-31.4
			c-6.6-3.6-14.2-4.5-21.5-5c-9.6,0-19.1,0-28.7,0c0-11,0-22,0-33c-12.6-0.1-25.3,0.1-37.9-0.1c0.2-8.7,0-17.3,0.1-26
			c103,0,205.9-0.2,308.9-0.1c-0.1,8.7-0.1,17.3,0,26C651.4,756.8,638.9,756.6,626.4,756.9z"/>
		<path class="st0" d="M493.2,1049.7c-0.7-9.8,0.5-19.6-1.1-29.3c-0.3-15.7,0.2-31.5-1.9-47.1c-0.5-4.6-0.1-9.3-0.9-13.9
			c-0.5-9,0.2-18-1.1-27c-0.5-9.7,0.2-19.4-1-29c-0.6-17.5,0.2-35.1-0.5-52.6c-1.2-8.8-0.3-17.6-0.9-26.4
			c-1.6-6.6-6.4-11.9-11.8-15.7c-3.4-2.9-6.2-6.6-10.5-8.2c2.3,5,6.7,8.7,9.5,13.5c1.9,3.4,3.7,6.9,4.6,10.6
			c0.4,17.4-0.1,34.7,0.4,52.1c1.5,14.9,0,29.9,1.7,44.8c0.4,8.3-0.4,16.7,0.9,25c0.7,9-0.4,18.1,0.9,27.1
			c0.8,9.3-0.2,18.6,1.1,27.9c0.4,6.3,0.3,12.7,0.5,19.1c1.1,5.9,0.5,12,0.7,18c0.4,20.7-0.3,41.3,0.3,62c3.9-1.6,8.3-3.8,9.8-8
			c0.6-7.6-0.1-15.3,0-23C493.7,1062.8,494.3,1056.2,493.2,1049.7z"/>
		<path class="st0" d="M154.6,220c11,6.2,24.8,4,35.4-2c0.1-3.5,0.2-7.1-0.2-10.6c-5.6,5.1-12.7,9.1-20.5,8.6
			c-7.4,0.4-14-4.9-17.1-11.3c-4.5-9.6-4.3-21.1-0.3-30.9c3-7.2,10.4-12.8,18.4-12.2c7.5-0.3,13.9,4.2,19.6,8.5
			c0.2-3.6,0.1-7.3,0-10.9c-6.2-2.8-12.7-5.3-19.5-5.3c-7.5-0.2-15.4,2.3-20.7,7.8c-7.5,7-10.4,17.7-10,27.7
			C139.4,201,143.8,214.1,154.6,220z"/>
		<path class="st0" d="M224.3,90.8c1.5,0.2,3,0.2,4.5,0.3c0,7.3,0,14.6,0,21.8c5.2,0,10.4,0,15.6,0c7.5-0.1,14.5-5,17.6-11.8
			c4.3-9.5,2.4-22.8-6.9-28.6c-7.9-5-17.5-3.3-26.3-3.5c0.1,6,0,11.9,0,17.9c-1.7,0.1-3.5,0.1-5.2,0.2
			C223.8,88.3,224,89.6,224.3,90.8z M243.3,87.2c-2.8-0.4-5.6-0.2-8.4-0.2c0.1-4.4,0-8.8,0-13.1c6.7-0.4,14.6,0.1,19.3,5.6
			c4,5.4,4.6,12.9,2.2,19.2c-1.4,4.1-5,7.3-9.2,8.4c-4,1.3-8.3,0.8-12.4,0.8c0.1-5.6,0.1-11.2,0-16.8c3.1-0.1,6.2,0.1,9.3-0.2
			C245.7,89.7,245.2,87.4,243.3,87.2z"/>
		<path class="st0" d="M200.5,221.5c2.1-6.2,4.1-12.4,5.9-18.7c8.4-0.1,16.8-0.2,25.2,0.1c1.6,6.5,3.8,12.9,6.2,19.2
			c3-0.1,6-0.1,8.9-0.1c-3.1-11.6-7.7-22.8-11.2-34.3c-3.7-10.6-7.1-21.3-10.8-32c-3.8-0.1-7.7-0.1-11.5,0
			c-7,22.2-14.9,44-21.8,66.2C194.4,221.8,197.6,222.5,200.5,221.5z M214.7,178c1.5-3.9,1.8-8.4,4.6-11.5c2.8,9.8,6.9,19.3,9,29.2
			c-6.3,0-12.6,0-18.9,0C210.2,189.5,213,183.9,214.7,178z"/>
		<path class="st0" d="M275.4,100.9c5.3-0.3,10.7-0.2,16-0.1c2.2,3.7,3,8.1,4.5,12.1c2.1-0.1,4.2-0.1,6.2-0.1
			c-4.8-14.7-9.9-29.2-14.8-43.9c-2.4,0-4.9,0-7.3,0c-3.5,8.9-6.2,18.2-9.4,27.2c-1.7,5.6-4.3,11-5.2,16.8c2,0,4-0.1,6-0.1
			C272.5,108.7,273.6,104.6,275.4,100.9z M282.4,77c0.5-0.1,1.4-0.3,1.8-0.4c1.8,6.4,4.2,12.7,6,19.1c-4.4,0.1-8.8,0.1-13.2,0
			C278.4,89.4,281.6,83.5,282.4,77z"/>
		<path class="st1" d="M0.7,327.4c13,3.2,25.7,7.4,38.8,10.3c32,8.6,64.3,16.3,96.3,24.9c62.1,15.8,124.3,31.7,186.4,47.7
			c23.2,6,46.3,12.1,69.6,17.4c2,0.5,3.9-0.4,5.8-0.8c15.5-3.7,30.9-7.6,46.2-11.7c72.7-19,145.4-37.9,218.2-56.7
			c34.8-9.3,69.7-18,104.4-27.4c5.9-1.5,11.6-3.9,17.7-4.6c0.1-1,0.2-2,0.2-3C784,216.8,784.1,110.2,784,3.6
			c-7.1-1-14.4-0.6-21.5-0.1c-89,0-178,0.1-267,0.2c-76.3,0-152.7,0.5-229,0.3c-7.3,0-14.7-0.1-22,0.5C163.1,4.5,81.8,4.7,0.5,4.6
			c-0.1,77.9,0,155.8,0,233.7C0.6,268,0.2,297.7,0.7,327.4z M680,68.9c0,1.6,0,3.3,0.1,4.9c-5,0-10,0-15,0c0,13,0,26.1,0,39.1
			c-2,0-4-0.1-6-0.1c0.1-13,0.1-26,0-39c-4.7,0.1-9.4-0.1-14.1,0.1c-0.3-1.6-0.6-3.3-0.9-4.9C656,68.8,668,69.1,680,68.9z
			 M623.2,51.8c2,0.1,5.9,0,5.9,0l7,11.2l-4.1,0.2l-6.3-6.5c0,0-3.2,4.1-5,6c-1.7,0.3-3.4,0.2-5,0.2
			C618.1,59.2,620.4,55.3,623.2,51.8z M622.2,68.9c2.9,0.3,7.4-1.3,8.2,2.7c4.7,13.7,9.5,27.4,14,41.2c-2.1,0-4.2,0.1-6.2,0.1
			c-1.4-4.1-2.7-8.2-4.3-12.2c-5.5,0.2-10.9-0.3-16.4,0.3c-1.8,3.8-2.9,7.8-3.9,11.8c-2.3,0.1-4.5,0.1-6.8,0
			C612.4,98.3,616.8,83.4,622.2,68.9z M628.8,125c0,0-4-0.1-6-0.1c0-2,0.1-4,0.1-6c1.9,0,5.8,0,5.8,0L628.8,125z M626.9,160.1
			c-0.2,3.4,0.4,7-1,10.2c-7.6-6.8-18.3-10.6-28.4-7.9c-9,3.1-14.6,12.7-14.8,21.9c-0.4,7.6-0.3,15.9,4.2,22.4
			c3.5,5.5,9.8,9.5,16.5,9.3c4.8-0.1,10.3,0.4,14.4-2.6c0.3-5.9,0-11.8,0.1-17.6c-5.3-0.1-10.5,0-15.8-0.1c0-2.3,0-4.6-0.1-6.9
			c4.4-1.2,8.9-0.7,13.4-0.8c3.8,0,7.8-0.3,11.5,0.7c-0.1,9.7,0,19.4,0,29c-6.8,3.1-13.9,6-21.5,5.4c-8.1,0.6-16.8-1.3-22.6-7.2
			c-6.8-6.2-9.4-15.6-9.9-24.5c-0.6-11,2.5-23.1,11.2-30.5C596.2,151.2,614,152.4,626.9,160.1z M572.9,68.9c2,0,4,0,6,0
			c0.1,10.1,0,20.3,0.1,30.4c-0.1,4.2,2.4,8.7,6.7,9.5c3.3,0.4,7.1,0.6,9.8-1.6c2.6-2.1,3.4-5.7,3.4-8.8c0.1-9.8-0.1-19.6,0-29.4
			c2,0,4,0,6.1,0c0.1,10.1,0.1,20.3,0,30.4c0.1,5-2.4,10.2-6.8,12.7c-3.8,2.5-8.6,1.8-12.8,1.8c-7-0.3-12.4-6.7-12.4-13.5
			C572.8,89.9,572.9,79.4,572.9,68.9z M532,68.8c2.3,0.1,4.5,0.3,6.7,0.9c-0.1,5.4-0.1,10.9-0.1,16.3c6.5,0,12.9,0,19.4,0
			c0-5.4,0.1-10.9-0.1-16.3c2-0.5,4-0.8,6.1-0.9c0.3,14.7,0.1,29.5,0.1,44.2c-2,0-4-0.1-6-0.1c0.1-7.3,0-14.6,0-21.9
			c-6.7,0.1-13.3,0-20,0c0,7.3,0,14.7,0,22c-2.1,0-4.1,0-6.2,0C531.9,98.2,531.7,83.5,532,68.8z M550.9,199.6
			c1.1,2.2,2.3,4.4,3.9,6.2c0.5-16.9,0-33.9,0.3-50.8c2.9,0,5.8,0,8.7,0.1c0,22.5,0.1,45,0,67.5c-3.4,0-6.8,0-10.3,0
			c-8.3-17.2-17.4-33.9-25.8-51.1c-0.7-1.4-1.6-2.7-2.8-3.8c-0.4,18.3,0,36.6-0.2,54.9c-3,0-5.9,0-8.8,0.1c-0.1-22.3,0-44.7-0.1-67
			c4.4,0,8.8-0.1,13.2,0C536.2,170.3,543.7,184.9,550.9,199.6z M493.4,69c11.5-0.2,23.1,0.1,34.6-0.1c0,1.6,0,3.3,0,5
			c-5,0-10,0-15,0c0,13.1,0,26.1,0,39.1c-2,0-4-0.1-6-0.1c0.1-13,0-26,0.1-39c-4.7,0.1-9.4-0.1-14.1,0.2
			C492.6,72.2,490.9,69.8,493.4,69z M508.5,221.9c-3.1,0.1-6.2,0-9.3,0c-1.7-6.4-4.4-12.5-5.7-19c-8.4-0.2-16.8-0.2-25.2,0
			c-1.6,6.4-4.1,12.6-5.7,19c-3.1,0.1-6.2,0.2-9.2,0c4.5-15,10-29.7,14.7-44.6c2.5-7.1,4.5-14.3,7.3-21.3c3.7-0.8,7.6-0.3,11.4-0.3
			c6.6,20.2,13.3,40.3,20.2,60.3C507.6,217.9,508,219.9,508.5,221.9z M482.3,130.9c3.3,0,6.5,0,9.8,0.1c-2.5,3.5-5.6,6.5-8.5,9.8
			c-1.9-0.1-3.8-0.1-5.6-0.1C479.1,137.4,480.6,134.1,482.3,130.9z M481.4,145.8c3.8,0.3,6.3-3.1,7.9-6.2c2.3,0,4.6,0.1,7,0.2
			c-2.3,14.5-27.8,14.6-29.8,0c2.1-0.1,4.2-0.1,6.4-0.2C474.7,142.6,477.4,146.2,481.4,145.8z M450.4,54.5c4.2-0.5,7.3,4.2,10.5,4.9
			c0.9-0.5,1.9-3.3,2.8-4.9c1.2,0,2.4,0.1,3.6,0.1c-0.1,3.9-2.6,8.7-7,8.3c-4.5,0.5-8-4.8-11.3-4.7c-1,0.8-1,3.1-1.4,4.6
			c-1.3,0-2.7,0-4,0C443.3,59,446.1,54.3,450.4,54.5z M406.8,68.8c2,0.1,4,0.2,6.1,0.3c0,6.2-0.2,12.5,0.1,18.7
			c6.3-5.8,12-12.4,17.5-18.9c4.4-0.1,8.8,0,13.2-0.1c4.4,6,7.1,13.1,11.9,18.8c3.8-6.3,7.3-12.9,11.6-18.9c1.9,0.1,3.9,0.1,5.8,0.6
			c-4.4,7.8-9.6,15.2-14,23c-0.9,6.7-0.2,13.6-0.4,20.4c-2.2,0.1-4.4,0.1-6.6,0.2c0-5.6,0-11.1,0-16.7c0.3-2.6-1.5-4.7-2.7-6.8
			c-3.8-6-7.1-12.3-11-18.1c-1.2-1.7-2.8,0.3-3.6,1.3c-4.3,5-9.3,9.5-13.6,14.4c-1.3,1.5-0.1,3.4,1,4.6c5.9,6.9,11.2,14.3,17.3,21.1
			c-2.9,0.1-5.7,0.1-8.5,0.1c-4.8-6.5-10.1-12.6-14.8-19.2c-1,0.1-2,0.2-3,0.2c-0.4,6.3-0.1,12.6-0.1,18.9c-2,0.1-4.1,0.1-6.1,0.1
			C406.7,98.2,406.6,83.5,406.8,68.8z M398.9,155.6c3-0.1,6.1-0.1,9.1,0c0,8.8-0.1,17.5,0,26.3c10.1,0,20.2,0,30.4,0
			c0.6-8.8,0.1-17.6,0.3-26.4c3-0.7,6.1-0.5,9.1,0.3c-0.2,22.3,0,44.5-0.1,66.8c-3.2,0-6.4,0-9.5,0c-0.1-11,0-22-0.1-32.9
			c-10,0.1-20.1-0.1-30.1,0.1c0.1,10.8-0.1,21.5,0.1,32.3c-3.1,0-6.1,0-9.2,0C399,199.9,399,177.7,398.9,155.6z M349.2,75.2
			c7.2-9.4,21.6-9.6,31-3.4c-0.1,2.3-0.1,4.5-0.2,6.8c-4.4-2.8-9.1-6-14.6-5.9c-7-0.6-12.7,5.6-14.1,12c-1.1,7.2-0.8,15.6,4.7,20.9
			c4.9,4.5,12.1,3.7,18.1,2.3c0.1-4,0.1-8.1,0-12.2c-3.4,0.1-6.8,0-10.2,0c0-1.6,0.1-3.1,0.3-4.7c5.3-0.3,10.6-0.1,15.9-0.1
			c0,6.5,0,13.1,0,19.7c-6.6,3.4-14.2,4.2-21.4,2.8c-7.4-1.8-12.7-8.6-13.7-16C344.3,89.8,344.1,81.4,349.2,75.2z M340.7,155
			c17.7,0.2,35.4,0,53.1,0.1c0,2.6,0,5.1,0,7.7c-7.6,0.1-15.2-0.1-22.7,0.1c0.1,19.7,0.1,39.5,0,59.2c-3,0-6,0-9-0.1
			c0.1-19.7,0-39.5,0-59.2c-7.3,0-14.7,0.1-22,0C340,160.1,340.1,157.5,340.7,155z M306.8,68.9c3.2,0.5,8-1.5,9.7,2.3
			c5.6,10.4,10.5,21.1,16.3,31.4c0.4-11.2,0-22.5,0.2-33.7c2,0.1,3.9,0.1,5.9,0.3c-0.1,14.6,0,29.2,0,43.8c-2.3,0-4.6,0-7,0
			c-4-7.7-8-15.4-12-23.1c-2.5-4.6-4.3-9.5-7.6-13.5c-0.1,12.2,0,24.5-0.1,36.7c-1.8,0-3.6,0-5.4-0.1
			C306.8,98.2,306.7,83.6,306.8,68.9z M304.4,208c-4.1,9.1-13.8,15.8-23.9,15c-6.2,0.3-12.7-0.2-17.9-4c-5.5-3.7-9.4-9.5-11.3-15.8
			c-2.2-6.4-1.5-13.3-1.5-20c0.2-13.3,9.5-26.9,23.3-28.9c9.4-1.8,19.8,0.9,26.5,7.8c4.6,5,7,11.6,8.2,18.2
			C308.5,189.7,308.6,199.5,304.4,208z M281.1,51.9c1.6-0.8,3.2-0.6,4.9-0.1c1.5,0.8,2.2,2.7,2,4.5c-0.8,1.6-3.7,4.4-3.7,4.4
			s-1.2,0-1.9,0c0.7-2,2.1-4.4,2-6c-0.9-0.5-2.7-0.7-3.7-0.2C280.8,53.7,281,52.8,281.1,51.9z M277.4,57.9c1.9,1.2,3.4,2.9,5.4,3.9
			c2.9,0.8,4.8-1.9,6.9-3.4c1.4-1.3,3.3,0.2,4.8,0.6c-2.3,4.7-7.5,7.4-12.8,6.4c-3.8-0.7-6.1-3.6-8.2-6.4
			C274.7,58.5,276,58.1,277.4,57.9z M270.7,96.1c3.2-9,5.9-18.3,9.4-27.2c2.4,0,4.9,0,7.3,0c4.8,14.7,10,29.2,14.8,43.9
			c-2.1,0-4.2,0.1-6.2,0.1c-1.5-4-2.3-8.4-4.5-12.1c-5.3-0.1-10.7-0.2-16,0.1c-1.9,3.8-2.9,7.9-4,11.9c-2,0.1-4,0.1-6,0.1
			C266.4,107.1,269,101.7,270.7,96.1z M228.8,69c8.8,0.2,18.4-1.5,26.3,3.5c9.3,5.9,11.2,19.1,6.9,28.6c-3,6.8-10.1,11.7-17.6,11.8
			c-5.2,0.1-10.4,0-15.6,0c0-7.3,0-14.6,0-21.8c-1.5-0.1-3-0.1-4.5-0.3c-0.3-1.2-0.5-2.5-0.6-3.7c1.7-0.1,3.5-0.1,5.2-0.2
			C228.8,80.9,228.9,75,228.8,69z M224.7,155.7c3.6,10.7,7,21.4,10.8,32c3.5,11.5,8.1,22.7,11.2,34.3c-3,0-6,0-8.9,0.1
			c-2.4-6.3-4.6-12.6-6.2-19.2c-8.4-0.2-16.8-0.1-25.2-0.1c-1.8,6.3-3.8,12.5-5.9,18.7c-2.9,1-6.1,0.3-9.1,0.4
			c6.9-22.2,14.8-44,21.8-66.2C217,155.5,220.9,155.6,224.7,155.7z M163.9,83.4c1.3-6.1,5.3-11.9,11.2-14.3
			c7.5-3.1,17.3-1.5,22.4,5.1c4.3,5,5.1,11.7,4.7,18.1c0.5,7.9-3.1,16.7-10.7,20.1c-4,2.2-8.7,1.5-13.1,1.4
			c-5.5-0.9-10.3-4.8-12.6-9.8C162.7,97.6,162.2,90.2,163.9,83.4z M149.8,161.7c5.3-5.5,13.2-7.9,20.7-7.8c6.9,0,13.4,2.5,19.5,5.3
			c0.1,3.6,0.2,7.3,0,10.9c-5.7-4.3-12.1-8.8-19.6-8.5c-8-0.6-15.4,5-18.4,12.2c-4,9.8-4.2,21.3,0.3,30.9
			c3.1,6.4,9.7,11.7,17.1,11.3c7.8,0.5,14.9-3.5,20.5-8.6c0.3,3.5,0.2,7.1,0.2,10.6c-10.6,6-24.4,8.2-35.4,2
			c-10.8-5.8-15.2-19-14.8-30.7C139.3,179.3,142.3,168.6,149.8,161.7z M139.3,68.9c2.4,0,4.9,0,7.3-0.1c3.6,10.2,7,20.5,10.5,30.7
			c1.5,4.4,3.3,8.7,4.3,13.2c-2,0-4,0.1-6,0.1c-1.5-4-3-8-4-12.1c-5.7-0.1-11.4-0.1-17.1,0c-1.1,4.2-2.3,8.3-4.2,12.2
			c-1.9-0.1-3.8-0.2-5.6-0.3C129.4,98.1,134.3,83.5,139.3,68.9z M94.1,76c3.4-4.9,9.2-8.5,15.3-8.2c5-0.4,9.9,1.1,14.1,3.5
			c1,2.5,0.3,5.3,0.4,7.9c-3.9-3.2-8.2-6.6-13.5-6.5c-5.1-0.3-9.8,3.1-11.8,7.6c-2.2,4-1.9,8.7-1.9,13c-0.3,5.3,2.4,10.7,6.8,13.8
			c2.8,2.1,6.4,2,9.7,1.7c4.1-0.7,7.3-3.5,10.7-5.6c0.1,2.2,0.1,4.5,0.3,6.7c-5.9,4.2-13.6,4.9-20.5,3.4c-4.9-1.6-9.2-5.3-11.1-10.2
			C88.7,94.5,89.1,84,94.1,76z M13.9,286.9c115.8-0.1,231.7-0.2,347.5-0.3c13-1.2,26-0.4,39-0.6c113-0.1,226-0.2,339-0.3
			c9.9,0.1,19.8-0.3,29.6,0.2c0,7.2,0,14.4,0,21.7c-122.3,32.1-244.8,63.9-367.2,95.7c-3.8,0.8-7.4,3-11.4,2.4
			c-16.6-4.8-33.4-8.5-50-13.1c-109-27.8-218-55.8-327-83.8C13.9,301.5,13.4,294.2,13.9,286.9z"/>
		<path class="st1" d="M187.6,108.3c4.7-2.1,7.6-7.1,8.2-12.1c0.3-6.6,1-14.2-3.9-19.5c-2.9-3.6-7.8-4.7-12.1-3.8
			c-5.9,1.5-9.8,7.5-10,13.4c-0.1,5.8-0.8,12.1,2.6,17.1C175.4,108.6,182.3,110.3,187.6,108.3z"/>
		<path class="st1" d="M234.9,91c0.1,5.6,0.1,11.2,0,16.8c4.1,0,8.4,0.5,12.4-0.8c4.2-1.1,7.8-4.3,9.2-8.4
			c2.3-6.2,1.8-13.7-2.2-19.2c-4.7-5.5-12.6-6-19.3-5.6c0,4.4,0,8.8,0,13.1c2.8,0.1,5.6-0.2,8.4,0.2c1.9,0.2,2.3,2.5,0.9,3.6
			C241.1,91.1,238,90.9,234.9,91z"/>
		<path class="st1" d="M632.3,95.8c-2.2-6.8-4.2-13.7-6.8-20.4c-2.2,6.8-4.3,13.7-6.7,20.4C623.3,95.7,627.8,95.8,632.3,95.8z"/>
		<path class="st1" d="M290.2,95.7c-1.8-6.4-4.2-12.7-6-19.1c-0.5,0.1-1.4,0.3-1.8,0.4c-0.8,6.5-4,12.4-5.3,18.8
			C281.4,95.8,285.8,95.8,290.2,95.7z"/>
		<path class="st1" d="M149.3,95.7c-1.6-6.4-4.1-12.6-5.9-19c-2.1,2.3-2.8,5.4-3.7,8.2c-1.1,3.6-2.5,7.1-3.2,10.8
			C140.7,95.8,145,95.8,149.3,95.7z"/>
		<path class="st1" d="M274.8,161.9c-4.7,0.6-8.6,3.9-11.3,7.6c-5.1,7.8-5.2,17.6-4.4,26.6c1,8.2,5.7,16.8,14,19.3
			c5.6,1.2,12.1,1,16.7-2.7c6.1-4.4,8.1-12.3,8.9-19.4c0.5-9.1-0.4-19.4-6.8-26.5C287.7,162,280.8,160.9,274.8,161.9z"/>
		<path class="st1" d="M470.8,195.6c6.7,0.1,13.5,0.1,20.2,0c-3.9-10-6.3-20.5-10.4-30.4C477.5,175.4,474.2,185.6,470.8,195.6z"/>
		<path class="st1" d="M219.3,166.5c-2.9,3.2-3.2,7.7-4.6,11.5c-1.7,5.9-4.5,11.6-5.2,17.7c6.3,0,12.6,0,18.9,0
			C226.2,185.7,222.2,176.3,219.3,166.5z"/>
		<path class="st1" d="M784.1,355.3c-7.6,1.3-14.9,3.9-22.4,5.6c-83.6,21.8-167.3,43.4-250.9,65.4c-38.8,10.1-77.7,20.2-116.5,30.4
			c-3.5,0.7-7.1-0.3-10.4-1.3c-125.1-32.3-250.4-64.2-375.5-96.4c-2.6-0.7-5.3-1.4-7.8-2.5c-0.4,47.6,0,95.1-0.1,142.7
			c0,195.2,0,390.3,0.1,585.5c23,5.5,45.8,11.7,68.7,17.5c105.8,27.2,211.7,54.2,317.6,81.4c2.9,0.7,5.9,2,8.9,0.9
			c65.4-17,130.8-34,196.1-51c43.4-11.1,86.6-22.8,130-33.9c20.8-5.2,41.4-11.3,62.3-15.8c0.2-91.8,0-183.6,0.1-275.5
			C784.3,657.3,784.3,506.3,784.1,355.3z M764,1066.5c-120,31.2-239.9,62.7-359.9,93.8c-4.4,0.9-8.8,3.3-13.4,2.3
			c-85.5-22-171-43.8-256.4-65.8c-37.5-9.7-75.1-19-112.5-28.9c-0.1-15.2-0.1-30.4-0.1-45.6c0.3-11.7-1.7-23.3-0.2-35
			c0.5-3.7-0.6-7.3-0.5-11c-0.1-197-0.4-394-0.4-591c4.3,0.1,8.5,1.2,12.7,2.4c86.2,22.1,172.4,44.3,258.7,66.4
			c31.9,8.2,63.8,16.2,95.7,24.5c2.8,0.6,5.7,0.5,8.5-0.2c119.3-31,238.5-62.2,357.8-93.3c2.9-0.8,5.9-1.5,8.9-1.8
			c0,67.6,0.1,135.2,0.1,202.8c0.1,9-0.3,18,0.7,27c-0.4,8.3-1.3,16.7-0.1,25c0.2,113.3,0.2,226.7,0.3,340
			C763.9,1007.7,764.2,1037.1,764,1066.5z"/>
		<path class="st1" d="M383.8,910.3c-0.3-8.2,0.5-16.5-0.5-24.7c-5.6,0.6-11.2,1.3-16.8,2.1c-14.5,0.8-29.1-0.5-43.2-3.8
			c-5.1-1.6-10.3-3-15.4-4.6c-8.8-3.8-17.8-7.3-25.7-12.8c-8.4-4.6-15.3-11.2-22.7-17.2c-12.1-11.8-22.2-25.5-29.6-40.7
			c-3.5-6-5.2-12.8-7.9-19.1c-11-35.6-7.9-75.5,9.7-108.5c3.6-8,9.2-14.9,14.3-22c6.6-7.6,13.3-15.4,21.4-21.6
			c7.3-6.4,15.8-11.2,24.2-16c8.2-3.8,16.3-8,25.1-10.1c8.2-2.8,16.7-3.9,25.2-5.2c4.2-0.5,8.4,0,12.6-0.7c9.6-1.2,19,1.9,28.6,1.8
			c0-29-0.2-58,0-87c-5.5-1.4-11.1-1.2-16.8-1.3c-2.2,9.5-4.8,19-7.3,28.5c-1.2,4.7-2.9,9.4-3.4,14.3c-8.8,0.3-17.7,0-26.4,2.1
			c-9.3,0.7-17.9,4.2-27.1,5.5c-7.2-12.4-14.2-24.9-21.6-37.1c-3.9,0.2-7.4,2.8-11.2,4c-9.6,3.5-18.3,9.1-27.6,13.3
			c1.9,7.6,5.1,14.9,7,22.5c1.8,6.7,5,13.2,6.3,20c-5.2,4.2-11.1,7.5-16.1,12c-3,2.7-6.1,5.3-9.1,8c-5.1,4.2-8.7,10-13.9,14.2
			c-1.7,0.7-3.4-0.3-4.8-1c-10.7-5.8-21.6-11.1-32.3-16.7c-1.5-1-3.4-0.7-4.2,1c-4.3,6.6-9.4,12.8-13.3,19.7
			c-2.5,4.9-6.2,9.3-7.7,14.7c11.5,8.6,22.4,18,33.4,27.2c-0.2,5.3-3.6,10.1-5.1,15.2c-3.7,11.9-7.4,24-8.3,36.5
			c-14.9,1.1-29.7,2.8-44.5,4.4c-0.2,13.6-0.5,27.2,0.2,40.8c0.1,1.2,1.3,2,2.4,2c14,2.1,28.1,2.9,42.1,5.2c1.9,8.5,3,17.3,6.1,25.4
			c2,8.8,6.2,16.8,9.5,25.1c-11.3,9.5-23.3,18.2-34.6,27.7c3,4.3,5.6,8.9,8.3,13.4c4.5,7.8,10.3,14.9,15.3,22.4
			c13-6.9,26.4-12.8,39.5-19.6c4,3.2,7.2,7.3,10.9,10.8c4.9,4.5,9.9,8.7,15.1,12.9c4.6,3.7,9.8,6.5,14.3,10.3
			c0.3,1.2,0.2,2.5-0.3,3.7c-4.3,12.8-9.3,25.5-13,38.5c4.1,1.8,8.1,4,12.1,6c8.4,4.5,17.6,7.4,26.3,11.1c2.4-2.2,3.6-5.3,5.3-7.9
			c5.9-9.6,11.6-19.3,17.4-28.9c3.8-0.8,7.6,0.6,11.2,1.4c7.1,2,14.5,2.7,21.9,3.6c6.8,0,13.4,1.3,20.2,0.9
			c4.1,14,6.8,28.3,10.8,42.3c4.7-0.3,9.5,0.2,14-1.3C383.7,951.9,383.9,931.1,383.8,910.3z"/>
		<path class="st1" d="M357.4,627.7c-28.8-0.5-57.5,10.5-79.1,29.5c-4.9,3.5-8.3,8.4-12.4,12.6c-18.8,22.2-29,51.4-28,80.5
			c1.1,25.4,10,50.7,26.2,70.4c21.2,26.6,54.2,43.8,88.3,44.4c4,0.8,8,0.3,12-0.2c6.6,0,13.1-0.9,19.4-2.9c-0.1-6.5-0.1-13-0.1-19.5
			c-4.9,0.1-9.4,2.6-14.4,2.5c-30.4,4.3-62.5-6.9-83.6-29.1c-14-14.3-23.6-32.9-27-52.6c-1.6-7.9-1-16-1-24
			c1.5-25.5,13.8-49.9,32.7-66.9c14.6-13.2,33.4-21.9,52.9-24.5c13.2-2.2,26.6-0.4,39.6,2.3c0.1-6.5-0.2-12.9,0.1-19.3
			C374.8,628.3,366,627.7,357.4,627.7z"/>
		<path class="st1" d="M663.9,730.8c-103,0-206,0.2-308.9,0.1c-0.1,8.7,0.1,17.3-0.1,26c12.6,0.2,25.3-0.1,37.9,0.1c0,11,0,22,0,33
			c9.6,0,19.1,0,28.7,0c7.4,0.5,14.9,1.4,21.5,5c12.4,5.9,21.4,18,23.9,31.4c2.2,12.2,0.1,24.6,1.8,36.8c0.3,10.9,0.2,21.8,0.4,32.8
			c1.6,13-0.1,26.3,1.5,39.3c0.2,12.7,0.2,25.4,0.5,38c1.6,14.9,0,30,1.6,45c0.2,12,0.2,24,0.4,36c1.1,9,0.5,18,0.8,27
			c0.4,12.6-0.3,25.3,1.1,37.8c4.6,0.2,8.7-2,12.9-3.6c19.3-7.8,38.6-15.2,58-22.8c0.2-9.1,0.1-18.3,0.3-27.4
			c1.7-17.6-0.1-35.4,1.6-53c0.1-13.3,0.3-26.7,0.3-40c1.3-16.3,0.6-32.7,1-49c1.8-18.6-0.1-37.3,1.7-55.9c0-5.7,0.1-11.4,0.2-17
			c0.2-9.3-0.6-18.8,2-27.9c4.8-18.4,22.6-31.9,41.4-32.5c10.5-0.1,21.1,0,31.7,0c0.3-11-0.5-22.1,0.4-33c12.5-0.3,25,0,37.5-0.1
			C663.8,748.1,663.8,739.4,663.9,730.8z M493.9,1092.3c-1.5,4.3-5.9,6.5-9.8,8c-0.6-20.7,0.1-41.3-0.3-62c-0.2-6,0.4-12-0.7-18
			c-0.3-6.4-0.1-12.7-0.5-19.1c-1.3-9.2-0.4-18.6-1.1-27.9c-1.3-9-0.2-18.1-0.9-27.1c-1.3-8.3-0.5-16.7-0.9-25
			c-1.7-14.9-0.2-29.9-1.7-44.8c-0.5-17.4,0-34.7-0.4-52.1c-0.9-3.8-2.7-7.3-4.6-10.6c-2.8-4.8-7.2-8.4-9.5-13.5
			c4.3,1.6,7.1,5.4,10.5,8.2c5.4,3.8,10.2,9.2,11.8,15.7c0.6,8.8-0.4,17.6,0.9,26.4c0.7,17.5-0.1,35.1,0.5,52.6
			c1.3,9.6,0.5,19.3,1,29c1.3,8.9,0.6,18,1.1,27c0.8,4.6,0.4,9.3,0.9,13.9c2.1,15.6,1.6,31.4,1.9,47.1c1.6,9.7,0.4,19.5,1.1,29.3
			c1.1,6.5,0.5,13.1,0.7,19.6C493.8,1077,494.5,1084.6,493.9,1092.3z M536.4,772.8c-5,0.4-10.1-0.1-15-0.7c-7-0.1-14,0-20.9-0.1
			c-11.3-0.2-22.7,0.7-34-0.9c-21.8-0.4-43.7-0.2-65.5-0.2c-0.2-4.4-0.3-8.7-0.1-13.1c6.8-0.1,13.7,0.2,20.6,0.1
			c6.3-0.3,12.7,1.6,19,0.5c4.7-0.9,9.4-0.4,14,0.2c19,0.5,38-0.1,57,0.3c8.2,0.2,16.6-0.5,24.6,1.4c2.4,1,5.2,3,5,6
			C541.5,769.3,539,771.9,536.4,772.8z"/>
	</g>
	<g>
		<path class="st2" d="M483.9,489.5c3.6,3.7,5.2,8.7,7.3,13.4c3.9,10.8,7.2,22,7,33.5c0.1,6.5,0.1,13-0.3,19.5
			c-1.5,10.4-3.8,20.8-8.2,30.4c-5.6,12.9-14.2,24.6-17.4,38.5c-0.7,4.4-0.6,9-0.3,13.4c1.7,9.8,7.7,19.1,16.7,23.6
			c12.7,5.5,27.3,4.2,40.1-0.4c9.3-3.5,15.1-13.3,15.3-23c0-5.2,0.3-10.5-1.6-15.4c-2.7-8.7-8.8-15.5-13.9-22.9
			c-10.8-15-14.6-35.2-8.6-52.8c0.6-2.4,1.7-4.7,3.5-6.5c2.2,7.3,4,14.6,7.2,21.5c8.7,19.7,22.3,37.1,38.6,51.1
			c11,10.3,22.7,21.3,27.3,36.1c2.2,6,1.5,12.5,1.6,18.8c0.1,12-5.9,24.4-16.5,30.5c-17.4,10.2-40.8,9.6-57.3-2.2
			c-15.9,10.3-34.1,17.5-53,19.8c-14.2,1.6-29.4-0.6-41.4-8.7c-12-8.4-20.8-21.4-23.7-35.8c-1.8-12.9,0.4-26.4,6.6-37.8
			c4.3-8,10.6-14.8,17.1-21c7.4-7.9,16.1-14.6,22.9-23.1c5.4-6.1,10.1-12.8,13.8-20.1c8.8-15.5,14-32.9,16-50.6c0.1-3,0.3-6,0.9-9
			C484.3,503.4,483.3,496.4,483.9,489.5z"/>
	</g>
</g>
</svg>
